<?xml version="1.0" encoding="UTF-8"?>
<svg id="Layer_2" xmlns="http://www.w3.org/2000/svg" xmlns:xlink="http://www.w3.org/1999/xlink" viewBox="0 0 550.38 101.22">
  <defs>
    <style>
      .cls-1 {
        fill: url(#linear-gradient-8);
      }

      .cls-2 {
        fill: url(#linear-gradient-7);
      }

      .cls-3 {
        fill: url(#linear-gradient-5);
      }

      .cls-4 {
        fill: url(#linear-gradient-6);
      }

      .cls-5 {
        fill: url(#linear-gradient-9);
      }

      .cls-6 {
        fill: url(#linear-gradient-4);
      }

      .cls-7 {
        fill: url(#linear-gradient-3);
      }

      .cls-8 {
        fill: url(#linear-gradient-2);
      }

      .cls-9 {
        fill: url(#linear-gradient);
      }

      .cls-10 {
        fill: url(#linear-gradient-10);
      }

      .cls-11 {
        fill: url(#linear-gradient-11);
      }

      .cls-12 {
        fill: url(#linear-gradient-12);
      }

      .cls-13 {
        fill: url(#linear-gradient-13);
      }

      .cls-14 {
        fill: #fff;
      }
    </style>
    <linearGradient id="linear-gradient" x1="2.75" y1="61.91" x2="134.67" y2="61.91" gradientUnits="userSpaceOnUse">
      <stop offset="0" stop-color="#fff"/>
      <stop offset="1" stop-color="#fff"/>
    </linearGradient>
    <linearGradient id="linear-gradient-2" x1="2.33" y1="51.69" x2="146.23" y2="51.69" xlink:href="#linear-gradient"/>
    <linearGradient id="linear-gradient-3" x1="3.29" y1="47.08" x2="140.29" y2="47.08" xlink:href="#linear-gradient"/>
    <linearGradient id="linear-gradient-4" x1="3.08" y1="42.62" x2="128.19" y2="42.62" xlink:href="#linear-gradient"/>
    <linearGradient id="linear-gradient-5" x1="1.77" y1="39.03" x2="113.6" y2="39.03" xlink:href="#linear-gradient"/>
    <linearGradient id="linear-gradient-6" x1="53.82" y1="56.65" x2="128.17" y2="56.65" xlink:href="#linear-gradient"/>
    <linearGradient id="linear-gradient-7" x1=".49" y1="34.8" x2="100.7" y2="34.8" xlink:href="#linear-gradient"/>
    <linearGradient id="linear-gradient-8" x1="0" y1="30.6" x2="91" y2="30.6" xlink:href="#linear-gradient"/>
    <linearGradient id="linear-gradient-9" x1=".17" y1="25.84" x2="77.7" y2="25.84" xlink:href="#linear-gradient"/>
    <linearGradient id="linear-gradient-10" x1=".19" y1="21.38" x2="68.13" y2="21.38" xlink:href="#linear-gradient"/>
    <linearGradient id="linear-gradient-11" x1=".97" y1="17.1" x2="57.54" y2="17.1" xlink:href="#linear-gradient"/>
    <linearGradient id="linear-gradient-12" x1="2.33" y1="12.81" x2="46.17" y2="12.81" xlink:href="#linear-gradient"/>
    <linearGradient id="linear-gradient-13" x1="5.3" y1="8.45" x2="34.25" y2="8.45" xlink:href="#linear-gradient"/>
  </defs>
  <g id="Layer_1-2" data-name="Layer_1">
    <g>
      <g>
        <path class="cls-9" d="M134.67,22.6c-1.76,2.08-3.78,4.58-6.07,7.6h0s-78.14,45.44-78.14,45.44h0c-3.3.18-7.24,1.5-10.2,5.93h0S5.52,101.22,5.52,101.22c-1.15-.2-2.21-.87-2.77-2.45L134.67,22.6Z"/>
        <path class="cls-8" d="M146.23,11.79L2.33,94.93c.02-.24.05-.5.08-.76.14-1.1.23-2.28.29-3.53L144.99,8.45c.37.35.61.76.7,1.25.2,1.03.4,1.68.54,2.1Z"/>
        <path class="cls-7" d="M140.29,7.55L3.4,86.61c0-.17,0-.34,0-.51l-.11.06v-3.39h.02c0-.07,0-.13,0-.18h0S133.29,7.55,133.29,7.55h7Z"/>
        <path class="cls-6" d="M128.19,6.58L3.34,78.65c-.07-1.32-.16-2.64-.26-3.92L119.68,7.47h0c2.87-.3,5.75-.62,8.51-.88Z"/>
        <path class="cls-3" d="M113.6,7.14L2.14,70.92c-.12-1.35-.25-2.65-.37-3.85L105.99,7.49h0c2.33,0,4.91-.14,7.6-.35Z"/>
        <path class="cls-4" d="M94.55,58.71l-29.82,16.9c-2.94.93-6.23,1.81-9.91,2.6,0,0-.36-.15-.99-.33l74.35-42.78c-2.56,3.15-5.02,5.92-7.35,8.34h0s-24.82,14.43-24.82,14.43l-1.46.85Z"/>
        <path class="cls-2" d="M100.7,7.14L.97,63.84c-.19-1.61-.36-2.91-.48-3.79H.49S96.07,5.76,96.07,5.76c.61.2,1.25.43,1.92.69.78.3,1.68.53,2.7.69Z"/>
        <path class="cls-1" d="M91,4.87L.33,56.65c-.1-.91-.23-2.23-.33-3.87L83.1,5.39c.68.5.88.82.88.82,0,0,.96-2.56,7.02-1.34Z"/>
        <path class="cls-5" d="M77.7,4.2L.22,49.01c-.04-1.24-.06-2.6-.05-4.04L73.33,2.68c1.89.51,3.31,1.04,4.37,1.53Z"/>
        <path class="cls-10" d="M68.13,1.98L.19,41.67c.05-1.36.14-2.78.28-4.23L62.69,1.08c2.07.27,3.87.58,5.44.9Z"/>
        <path class="cls-11" d="M57.54.76L.97,33.92c.18-1.47.41-2.97.71-4.48L51.37.28c2.25.12,4.3.29,6.17.48Z"/>
        <path class="cls-12" d="M46.17.14L2.33,25.63c.38-1.64.85-3.28,1.4-4.89L39.41,0h0c2.42.01,4.66.06,6.75.14Z"/>
        <path class="cls-13" d="M34.25.03L5.3,16.86c1.03-2.21,2.27-4.32,3.76-6.25L26.36.55c1.58-.26,3.25-.41,5.03-.46.97-.03,1.93-.05,2.86-.06Z"/>
      </g>
      <g>
        <path class="cls-14" d="M175.63,34.61h10.53c2.55,0,4.97.29,7.27.85,2.3.57,4.3,1.49,6.01,2.77s3.07,2.93,4.07,4.97c1,2.04,1.51,4.52,1.51,7.43,0,2.58-.49,4.85-1.46,6.82-.98,1.97-2.29,3.62-3.94,4.95-1.65,1.34-3.56,2.35-5.72,3.04-2.16.69-4.43,1.04-6.8,1.04h-11.48v-31.87ZM182.65,60h3.65c1.62,0,3.13-.16,4.52-.5,1.4-.33,2.6-.88,3.62-1.64,1.02-.77,1.82-1.77,2.41-3.02.59-1.25.88-2.77.88-4.57,0-1.56-.29-2.92-.88-4.07-.58-1.15-1.37-2.11-2.36-2.86-.99-.75-2.15-1.31-3.49-1.69-1.34-.37-2.74-.56-4.21-.56h-4.14v18.9Z"/>
        <path class="cls-14" d="M209.79,34.61h12.33c1.62,0,3.16.16,4.61.47,1.46.31,2.73.84,3.83,1.58,1.1.74,1.97,1.73,2.61,2.97.65,1.25.97,2.8.97,4.66,0,2.25-.59,4.16-1.76,5.74-1.17,1.58-2.88,2.57-5.13,2.99l8.1,13.46h-8.42l-6.66-12.74h-3.47v12.74h-7.02v-31.87ZM216.81,47.8h4.14c.63,0,1.3-.02,2-.07.7-.04,1.34-.18,1.91-.41.57-.23,1.04-.58,1.42-1.06.38-.48.56-1.15.56-2.03,0-.81-.17-1.46-.5-1.94-.33-.48-.75-.85-1.26-1.1-.51-.25-1.1-.43-1.76-.52-.66-.09-1.31-.13-1.94-.13h-4.59v7.25Z"/>
        <path class="cls-14" d="M238.24,62.61c0-.57.1-1.11.31-1.62s.5-.95.88-1.33c.38-.37.82-.67,1.33-.88.51-.21,1.05-.31,1.62-.31s1.11.11,1.62.31c.51.21.95.5,1.33.88.38.38.67.82.88,1.33.21.51.31,1.05.31,1.62s-.11,1.11-.31,1.62c-.21.51-.5.95-.88,1.33-.38.38-.82.67-1.33.88-.51.21-1.05.31-1.62.31s-1.11-.11-1.62-.31-.95-.5-1.33-.88c-.38-.37-.67-.82-.88-1.33-.21-.51-.31-1.05-.31-1.62Z"/>
        <path class="cls-14" d="M265.6,34.61h11.88c1.38,0,2.77.1,4.16.29,1.4.2,2.65.58,3.76,1.17,1.11.58,2.01,1.4,2.7,2.45.69,1.05,1.04,2.45,1.04,4.19s-.5,3.29-1.51,4.48c-1.01,1.19-2.33,2.03-3.98,2.54v.09c1.05.15,2,.44,2.86.88.85.44,1.59.99,2.21,1.67.61.68,1.09,1.46,1.42,2.36.33.9.5,1.86.5,2.88,0,1.68-.36,3.08-1.08,4.21-.72,1.13-1.65,2.03-2.79,2.72-1.14.69-2.42,1.19-3.85,1.49-1.43.3-2.84.45-4.25.45h-13.05v-31.87ZM272.62,47.35h5.09c.54,0,1.07-.06,1.6-.18.52-.12,1-.32,1.42-.59.42-.27.76-.63,1.01-1.08.25-.45.38-.99.38-1.62s-.14-1.21-.43-1.64c-.29-.43-.65-.77-1.1-1.01s-.96-.41-1.53-.52c-.57-.1-1.13-.16-1.67-.16h-4.77v6.8ZM272.62,60.54h6.3c.54,0,1.09-.06,1.64-.18.55-.12,1.06-.33,1.51-.63.45-.3.82-.69,1.1-1.17.29-.48.43-1.06.43-1.76,0-.75-.19-1.36-.56-1.82-.38-.46-.85-.82-1.42-1.06-.57-.24-1.19-.41-1.85-.5-.66-.09-1.28-.13-1.85-.13h-5.31v7.25Z"/>
        <path class="cls-14" d="M294.68,34.61h7.02v31.87h-7.02v-31.87Z"/>
        <path class="cls-14" d="M308.36,34.61h7.02v25.39h13.01v6.48h-20.03v-31.87Z"/>
        <path class="cls-14" d="M342.75,34.61h5.81l13.86,31.87h-7.92l-2.75-6.75h-12.38l-2.66,6.75h-7.74l13.77-31.87ZM345.45,43.89l-3.87,9.9h7.79l-3.92-9.9Z"/>
        <path class="cls-14" d="M365.89,34.61h7.02v25.39h13.01v6.48h-20.03v-31.87Z"/>
        <path class="cls-14" d="M403.11,34.61h11.88c1.38,0,2.77.1,4.16.29,1.4.2,2.65.58,3.76,1.17,1.11.58,2.01,1.4,2.7,2.45.69,1.05,1.04,2.45,1.04,4.19s-.5,3.29-1.51,4.48c-1.01,1.19-2.33,2.03-3.98,2.54v.09c1.05.15,2,.44,2.86.88.85.44,1.59.99,2.21,1.67.61.68,1.09,1.46,1.42,2.36.33.9.5,1.86.5,2.88,0,1.68-.36,3.08-1.08,4.21-.72,1.13-1.65,2.03-2.79,2.72-1.14.69-2.42,1.19-3.85,1.49-1.43.3-2.84.45-4.25.45h-13.05v-31.87ZM410.13,47.35h5.09c.54,0,1.07-.06,1.6-.18.52-.12,1-.32,1.42-.59.42-.27.76-.63,1.01-1.08.25-.45.38-.99.38-1.62s-.14-1.21-.43-1.64c-.29-.43-.65-.77-1.1-1.01s-.96-.41-1.53-.52c-.57-.1-1.13-.16-1.67-.16h-4.77v6.8ZM410.13,60.54h6.3c.54,0,1.09-.06,1.64-.18.55-.12,1.06-.33,1.51-.63.45-.3.82-.69,1.1-1.17.29-.48.43-1.06.43-1.76,0-.75-.19-1.36-.56-1.82-.38-.46-.85-.82-1.42-1.06-.57-.24-1.19-.41-1.85-.5-.66-.09-1.28-.13-1.85-.13h-5.31v7.25Z"/>
        <path class="cls-14" d="M430.56,50.55c0-2.55.43-4.86,1.28-6.93.86-2.07,2.05-3.83,3.58-5.29,1.53-1.46,3.35-2.57,5.45-3.35,2.1-.78,4.4-1.17,6.89-1.17s4.79.39,6.89,1.17c2.1.78,3.92,1.9,5.45,3.35,1.53,1.46,2.72,3.22,3.58,5.29.86,2.07,1.28,4.38,1.28,6.93s-.43,4.86-1.28,6.93c-.85,2.07-2.05,3.83-3.58,5.29-1.53,1.46-3.35,2.57-5.45,3.35-2.1.78-4.4,1.17-6.89,1.17s-4.79-.39-6.89-1.17c-2.1-.78-3.92-1.9-5.45-3.35-1.53-1.46-2.72-3.22-3.58-5.29-.85-2.07-1.28-4.38-1.28-6.93ZM437.86,50.55c0,1.5.23,2.87.7,4.12.46,1.25,1.13,2.33,2,3.24.87.92,1.91,1.63,3.13,2.14,1.22.51,2.57.77,4.07.77s2.86-.25,4.07-.77c1.22-.51,2.26-1.22,3.13-2.14.87-.92,1.54-2,2-3.24.46-1.24.7-2.62.7-4.12s-.23-2.84-.7-4.1c-.47-1.26-1.13-2.35-2-3.26-.87-.92-1.91-1.63-3.13-2.14-1.22-.51-2.57-.77-4.07-.77s-2.86.26-4.07.77c-1.22.51-2.26,1.22-3.13,2.14-.87.92-1.54,2-2,3.26-.47,1.26-.7,2.63-.7,4.1Z"/>
        <path class="cls-14" d="M469.72,34.61h11.88c1.38,0,2.77.1,4.16.29,1.4.2,2.65.58,3.76,1.17,1.11.58,2.01,1.4,2.7,2.45.69,1.05,1.04,2.45,1.04,4.19s-.5,3.29-1.51,4.48c-1.01,1.19-2.33,2.03-3.98,2.54v.09c1.05.15,2,.44,2.86.88.85.44,1.59.99,2.21,1.67.61.68,1.09,1.46,1.42,2.36.33.9.5,1.86.5,2.88,0,1.68-.36,3.08-1.08,4.21-.72,1.13-1.65,2.03-2.79,2.72-1.14.69-2.42,1.19-3.85,1.49-1.43.3-2.84.45-4.25.45h-13.05v-31.87ZM476.75,47.35h5.09c.54,0,1.07-.06,1.6-.18.52-.12,1-.32,1.42-.59.42-.27.76-.63,1.01-1.08.25-.45.38-.99.38-1.62s-.14-1.21-.43-1.64c-.29-.43-.65-.77-1.1-1.01s-.96-.41-1.53-.52c-.57-.1-1.13-.16-1.67-.16h-4.77v6.8ZM476.75,60.54h6.3c.54,0,1.09-.06,1.64-.18.55-.12,1.06-.33,1.51-.63.45-.3.82-.69,1.1-1.17.29-.48.43-1.06.43-1.76,0-.75-.19-1.36-.56-1.82-.38-.46-.85-.82-1.42-1.06-.57-.24-1.19-.41-1.85-.5-.66-.09-1.28-.13-1.85-.13h-5.31v7.25Z"/>
        <path class="cls-14" d="M509.38,34.61h5.81l13.86,31.87h-7.92l-2.75-6.75h-12.38l-2.66,6.75h-7.74l13.77-31.87ZM512.08,43.89l-3.87,9.9h7.79l-3.92-9.9Z"/>
        <path class="cls-14" d="M534.27,40.83h-9.09v-6.21h25.21v6.21h-9.09v25.66h-7.02v-25.66Z"/>
      </g>
    </g>
  </g>
</svg>