<?xml version="1.0" encoding="UTF-8"?>
<svg id="Layer_2" xmlns="http://www.w3.org/2000/svg" xmlns:xlink="http://www.w3.org/1999/xlink" viewBox="0 0 460.63 149.88">
  <defs>
    <style>
      .cls-1 {
        fill: url(#linear-gradient-8);
      }

      .cls-2 {
        fill: url(#linear-gradient-7);
      }

      .cls-3 {
        fill: url(#linear-gradient-5);
      }

      .cls-4 {
        fill: url(#linear-gradient-6);
      }

      .cls-5 {
        fill: url(#linear-gradient-9);
      }

      .cls-6 {
        fill: url(#linear-gradient-4);
      }

      .cls-7 {
        fill: url(#linear-gradient-3);
      }

      .cls-8 {
        fill: url(#linear-gradient-2);
      }

      .cls-9 {
        fill: url(#linear-gradient);
      }

      .cls-10 {
        fill: url(#linear-gradient-10);
      }

      .cls-11 {
        fill: url(#linear-gradient-11);
      }

      .cls-12 {
        fill: url(#linear-gradient-12);
      }

      .cls-13 {
        fill: url(#linear-gradient-13);
      }

      .cls-14 {
        fill: #0b252d;
      }
    </style>
    <linearGradient id="linear-gradient" x1="4.07" y1="91.67" x2="199.41" y2="91.67" gradientUnits="userSpaceOnUse">
      <stop offset="0" stop-color="#00aeef"/>
      <stop offset="1" stop-color="#000"/>
    </linearGradient>
    <linearGradient id="linear-gradient-2" x1="3.45" y1="76.54" x2="216.53" y2="76.54" xlink:href="#linear-gradient"/>
    <linearGradient id="linear-gradient-3" x1="4.87" y1="69.71" x2="207.74" y2="69.71" xlink:href="#linear-gradient"/>
    <linearGradient id="linear-gradient-4" x1="4.56" y1="63.1" x2="189.82" y2="63.1" xlink:href="#linear-gradient"/>
    <linearGradient id="linear-gradient-5" x1="2.62" y1="57.79" x2="168.21" y2="57.79" xlink:href="#linear-gradient"/>
    <linearGradient id="linear-gradient-6" x1="79.7" y1="83.89" x2="189.79" y2="83.89" xlink:href="#linear-gradient"/>
    <linearGradient id="linear-gradient-7" x1=".73" y1="51.54" x2="149.11" y2="51.54" xlink:href="#linear-gradient"/>
    <linearGradient id="linear-gradient-8" x1="0" y1="45.3" x2="134.74" y2="45.3" xlink:href="#linear-gradient"/>
    <linearGradient id="linear-gradient-9" x1=".25" y1="38.27" x2="115.05" y2="38.27" xlink:href="#linear-gradient"/>
    <linearGradient id="linear-gradient-10" x1=".29" y1="31.65" x2="100.89" y2="31.65" xlink:href="#linear-gradient"/>
    <linearGradient id="linear-gradient-11" x1="1.43" y1="25.32" x2="85.2" y2="25.32" xlink:href="#linear-gradient"/>
    <linearGradient id="linear-gradient-12" x1="3.45" y1="18.97" x2="68.36" y2="18.97" xlink:href="#linear-gradient"/>
    <linearGradient id="linear-gradient-13" x1="7.85" y1="12.51" x2="50.72" y2="12.51" xlink:href="#linear-gradient"/>
  </defs>
  <g id="Layer_1-2" data-name="Layer_1">
    <g>
      <path class="cls-14" d="M246.31,32.85h10.73c2.6,0,5.07.29,7.41.87,2.34.58,4.38,1.52,6.12,2.82,1.74,1.3,3.13,2.99,4.15,5.07,1.02,2.08,1.54,4.6,1.54,7.57,0,2.63-.5,4.95-1.49,6.95-.99,2-2.33,3.69-4.01,5.05-1.68,1.36-3.62,2.39-5.83,3.1-2.2.7-4.51,1.06-6.93,1.06h-11.7v-32.48ZM253.47,58.72h3.72c1.65,0,3.19-.17,4.61-.5,1.42-.34,2.65-.89,3.69-1.67,1.04-.78,1.86-1.8,2.45-3.07.6-1.27.89-2.82.89-4.66,0-1.59-.3-2.97-.89-4.15-.6-1.18-1.4-2.15-2.41-2.91-1.01-.76-2.19-1.34-3.56-1.72-1.36-.38-2.79-.57-4.29-.57h-4.22v19.27Z"/>
      <path class="cls-14" d="M281.13,32.85h12.57c1.65,0,3.22.16,4.7.48,1.48.32,2.78.86,3.9,1.61,1.12.75,2,1.76,2.66,3.03.66,1.27.99,2.85.99,4.75,0,2.29-.6,4.24-1.79,5.85-1.19,1.61-2.94,2.62-5.23,3.05l8.26,13.72h-8.58l-6.79-12.98h-3.53v12.98h-7.16v-32.48ZM288.28,46.29h4.22c.64,0,1.32-.02,2.04-.07.72-.05,1.37-.18,1.95-.41.58-.23,1.06-.59,1.44-1.08.38-.49.57-1.18.57-2.06,0-.83-.17-1.48-.5-1.97-.34-.49-.76-.86-1.28-1.12-.52-.26-1.12-.44-1.79-.53-.67-.09-1.33-.14-1.97-.14h-4.68v7.39Z"/>
      <path class="cls-14" d="M310.12,61.38c0-.58.11-1.13.32-1.65.21-.52.51-.97.89-1.35.38-.38.83-.68,1.35-.9.52-.21,1.07-.32,1.65-.32s1.13.11,1.65.32c.52.21.97.51,1.35.9.38.38.68.83.89,1.35.21.52.32,1.07.32,1.65s-.11,1.13-.32,1.65c-.21.52-.51.97-.89,1.35-.38.38-.83.68-1.35.89-.52.21-1.07.32-1.65.32s-1.13-.11-1.65-.32c-.52-.21-.97-.51-1.35-.89-.38-.38-.68-.83-.89-1.35-.21-.52-.32-1.07-.32-1.65Z"/>
      <path class="cls-14" d="M338.01,32.85h12.11c1.41,0,2.82.1,4.24.3,1.42.2,2.7.6,3.83,1.19,1.13.6,2.05,1.43,2.75,2.5.7,1.07,1.05,2.49,1.05,4.27s-.51,3.36-1.54,4.56c-1.02,1.21-2.38,2.07-4.06,2.59v.09c1.07.15,2.04.45,2.91.89.87.44,1.62,1.01,2.25,1.7.63.69,1.11,1.49,1.44,2.41.34.92.5,1.9.5,2.94,0,1.71-.37,3.14-1.1,4.29s-1.68,2.07-2.84,2.78c-1.16.7-2.47,1.21-3.92,1.51-1.45.31-2.9.46-4.33.46h-13.3v-32.48ZM345.17,45.83h5.18c.55,0,1.09-.06,1.63-.18.53-.12,1.02-.32,1.45-.6.43-.28.77-.64,1.03-1.1.26-.46.39-1.01.39-1.65s-.15-1.23-.44-1.67c-.29-.44-.67-.79-1.12-1.03-.46-.24-.98-.42-1.56-.53-.58-.11-1.15-.16-1.7-.16h-4.86v6.93ZM345.17,59.27h6.42c.55,0,1.11-.06,1.67-.18.57-.12,1.08-.34,1.54-.64.46-.31.83-.7,1.12-1.19.29-.49.44-1.09.44-1.79,0-.76-.19-1.38-.57-1.86-.38-.47-.86-.83-1.44-1.08-.58-.24-1.21-.41-1.88-.5-.67-.09-1.3-.14-1.88-.14h-5.41v7.39Z"/>
      <path class="cls-14" d="M367.65,32.85h7.16v32.48h-7.16v-32.48Z"/>
      <path class="cls-14" d="M381.59,32.85h7.16v25.87h13.26v6.61h-20.41v-32.48Z"/>
      <path class="cls-14" d="M416.64,32.85h5.92l14.13,32.48h-8.07l-2.8-6.88h-12.62l-2.71,6.88h-7.89l14.04-32.48ZM419.39,42.3l-3.95,10.09h7.94l-3.99-10.09Z"/>
      <path class="cls-14" d="M440.22,32.85h7.16v25.87h13.26v6.61h-20.41v-32.48Z"/>
      <path class="cls-14" d="M246.31,82.39h12.11c1.41,0,2.82.1,4.24.3,1.42.2,2.7.6,3.83,1.19,1.13.6,2.05,1.43,2.75,2.5.7,1.07,1.05,2.49,1.05,4.27s-.51,3.36-1.54,4.56c-1.02,1.21-2.38,2.07-4.06,2.59v.09c1.07.15,2.04.45,2.91.89s1.62,1.01,2.25,1.7c.63.69,1.11,1.49,1.44,2.41.34.92.5,1.9.5,2.94,0,1.71-.37,3.14-1.1,4.29-.73,1.15-1.68,2.07-2.84,2.78-1.16.7-2.47,1.21-3.92,1.51-1.45.31-2.9.46-4.33.46h-13.3v-32.48ZM253.47,95.37h5.18c.55,0,1.09-.06,1.63-.18.53-.12,1.02-.32,1.45-.6.43-.28.77-.64,1.03-1.1.26-.46.39-1.01.39-1.65s-.15-1.23-.44-1.67c-.29-.44-.67-.79-1.12-1.03-.46-.25-.98-.42-1.56-.53-.58-.11-1.15-.16-1.7-.16h-4.86v6.93ZM253.47,108.81h6.42c.55,0,1.11-.06,1.67-.18.57-.12,1.08-.34,1.54-.64.46-.3.83-.7,1.12-1.19.29-.49.44-1.08.44-1.79,0-.76-.19-1.38-.57-1.86-.38-.47-.86-.83-1.44-1.08-.58-.25-1.21-.41-1.88-.5-.67-.09-1.3-.14-1.88-.14h-5.41v7.39Z"/>
      <path class="cls-14" d="M274.29,98.63c0-2.6.44-4.96,1.31-7.07.87-2.11,2.09-3.91,3.65-5.39s3.41-2.62,5.55-3.42c2.14-.79,4.48-1.19,7.02-1.19s4.88.4,7.02,1.19c2.14.8,3.99,1.93,5.55,3.42,1.56,1.48,2.78,3.28,3.65,5.39.87,2.11,1.31,4.47,1.31,7.07s-.44,4.95-1.31,7.06-2.09,3.91-3.65,5.39c-1.56,1.48-3.41,2.62-5.55,3.42-2.14.79-4.48,1.19-7.02,1.19s-4.88-.4-7.02-1.19c-2.14-.79-3.99-1.93-5.55-3.42-1.56-1.48-2.78-3.28-3.65-5.39s-1.31-4.46-1.31-7.06ZM281.72,98.63c0,1.53.24,2.93.71,4.2.47,1.27,1.15,2.37,2.04,3.3.89.93,1.95,1.66,3.19,2.18,1.24.52,2.62.78,4.15.78s2.91-.26,4.15-.78c1.24-.52,2.3-1.25,3.19-2.18.89-.93,1.57-2.03,2.04-3.3.47-1.27.71-2.67.71-4.2s-.24-2.89-.71-4.17c-.47-1.29-1.15-2.39-2.04-3.33-.89-.93-1.95-1.66-3.19-2.18-1.24-.52-2.62-.78-4.15-.78s-2.91.26-4.15.78c-1.24.52-2.3,1.25-3.19,2.18-.89.93-1.57,2.04-2.04,3.33-.47,1.28-.71,2.68-.71,4.17Z"/>
      <path class="cls-14" d="M314.2,82.39h12.11c1.41,0,2.82.1,4.24.3,1.42.2,2.7.6,3.83,1.19,1.13.6,2.05,1.43,2.75,2.5.7,1.07,1.05,2.49,1.05,4.27s-.51,3.36-1.54,4.56c-1.02,1.21-2.38,2.07-4.06,2.59v.09c1.07.15,2.04.45,2.91.89s1.62,1.01,2.25,1.7c.63.69,1.11,1.49,1.44,2.41.34.92.5,1.9.5,2.94,0,1.71-.37,3.14-1.1,4.29-.73,1.15-1.68,2.07-2.84,2.78-1.16.7-2.47,1.21-3.92,1.51-1.45.31-2.9.46-4.33.46h-13.3v-32.48ZM321.36,95.37h5.18c.55,0,1.09-.06,1.63-.18.53-.12,1.02-.32,1.45-.6.43-.28.77-.64,1.03-1.1.26-.46.39-1.01.39-1.65s-.15-1.23-.44-1.67c-.29-.44-.67-.79-1.12-1.03-.46-.25-.98-.42-1.56-.53-.58-.11-1.15-.16-1.7-.16h-4.86v6.93ZM321.36,108.81h6.42c.55,0,1.11-.06,1.67-.18.57-.12,1.08-.34,1.54-.64.46-.3.83-.7,1.12-1.19.29-.49.44-1.08.44-1.79,0-.76-.19-1.38-.57-1.86-.38-.47-.86-.83-1.44-1.08-.58-.25-1.21-.41-1.88-.5-.67-.09-1.3-.14-1.88-.14h-5.41v7.39Z"/>
      <path class="cls-14" d="M354.62,82.39h5.92l14.13,32.48h-8.07l-2.8-6.88h-12.62l-2.71,6.88h-7.89l14.04-32.48ZM357.37,91.84l-3.95,10.09h7.94l-3.99-10.09Z"/>
      <path class="cls-14" d="M379.99,88.72h-9.27v-6.33h25.69v6.33h-9.27v26.15h-7.16v-26.15Z"/>
      <g>
        <path class="cls-9" d="M199.41,33.46c-2.61,3.08-5.6,6.79-8.99,11.25h0s-115.71,67.28-115.71,67.28h0c-4.89.26-10.73,2.22-15.1,8.78h0s-51.42,29.1-51.42,29.1c-1.71-.3-3.27-1.3-4.11-3.63L199.41,33.46Z"/>
        <path class="cls-8" d="M216.53,17.46L3.45,140.56c.03-.36.07-.74.12-1.12.2-1.63.34-3.38.43-5.22L214.69,12.51c.55.51.9,1.13,1.04,1.85.3,1.53.59,2.48.8,3.1Z"/>
        <path class="cls-7" d="M207.74,11.18L5.03,128.24c0-.25,0-.5,0-.75l-.16.09v-5.02l.03-.02c0-.08,0-.16-.01-.25h0S197.37,11.18,197.37,11.18h10.36Z"/>
        <path class="cls-6" d="M189.82,9.75L4.94,116.45c-.11-1.96-.24-3.91-.38-5.8L177.22,11.06h0c4.25-.44,8.52-.91,12.6-1.31Z"/>
        <path class="cls-3" d="M168.21,10.57L3.18,105.01c-.18-2-.37-3.92-.56-5.7L156.95,11.09h0c3.45,0,7.27-.2,11.25-.52Z"/>
        <path class="cls-4" d="M140,86.93l-44.16,25.02c-4.36,1.38-9.23,2.68-14.67,3.85,0,0-.54-.22-1.47-.49l110.09-63.35c-3.8,4.67-7.44,8.77-10.88,12.35h0s-36.75,21.37-36.75,21.37l-2.16,1.25Z"/>
        <path class="cls-2" d="M149.11,10.58L1.43,94.54c-.28-2.38-.53-4.31-.71-5.61h0S142.26,8.53,142.26,8.53c.9.3,1.85.64,2.85,1.02,1.15.44,2.49.78,4,1.02Z"/>
        <path class="cls-1" d="M134.74,7.21L.49,83.89c-.15-1.34-.34-3.3-.49-5.74L123.05,7.98c1.01.74,1.3,1.21,1.3,1.21,0,0,1.42-3.79,10.39-1.99Z"/>
        <path class="cls-5" d="M115.05,6.23L.32,72.58c-.06-1.84-.09-3.85-.07-5.98L108.58,3.96c2.79.76,4.9,1.54,6.47,2.26Z"/>
        <path class="cls-10" d="M100.89,2.93L.29,61.7c.08-2.01.21-4.11.42-6.27L92.83,1.6c3.06.4,5.73.85,8.06,1.34Z"/>
        <path class="cls-11" d="M85.2,1.12L1.43,50.23c.27-2.18.61-4.4,1.05-6.64L76.07.41c3.34.19,6.37.43,9.13.71Z"/>
        <path class="cls-12" d="M68.36.21L3.45,37.95c.57-2.43,1.26-4.85,2.08-7.23L58.36,0h0c3.58.02,6.9.09,10,.21Z"/>
        <path class="cls-13" d="M50.72.05L7.85,24.97c1.52-3.27,3.36-6.4,5.56-9.26L39.04.81c2.34-.38,4.82-.61,7.44-.68,1.44-.04,2.86-.07,4.24-.09Z"/>
      </g>
    </g>
  </g>
</svg>